<svg width="117.05999755859375px" height="92.85999145507812px" 
xmlns="http://www.w3.org/2000/svg" 
viewBox="191.47000122070312 28.57000427246094 117.05999755859375 92.85999145507812" 
style="background: rgb(253, 253, 253);" 
preserveAspectRatio="xMidYMid"><defs>
<filter id="editing-jagged" x="-100%" y="-100%" width="300%" height="300%">
<feTurbulence result="turb" baseFrequency="0.1" numOctaves="1" seed="1">
</feTurbulence><feDisplacementMap in="SourceGraphic" in2="turb" scale="7.5">
</feDisplacementMap></filter></defs><g filter="url(#editing-jagged)">
<g transform="translate(214.4399985074997, 91.66500091552734)"><path d="M19.87-9.85L19.87-9.85L19.87-9.85Q20.68-9.85 20.68-7.78L20.68-7.78L20.68-7.78Q20.68-5.72 19.91-4.08L19.91-4.08L19.91-4.08Q19.14-2.45 18.04-1.55L18.04-1.55L18.04-1.55Q16.94-0.65 15.57-0.09L15.57-0.09L15.57-0.09Q10.97 1.94 6.97-0.17L6.97-0.17L6.97-0.17Q4.95-1.25 3.87-2.73L3.87-2.73L3.87-2.73Q2.80-4.21 2.15-6.28L2.15-6.28L2.15-6.28Q1.16-9.37 1.16-12.77L1.16-12.77L1.16-12.77Q1.16-16.17 1.81-19.14L1.81-19.14L1.81-19.14Q2.45-22.10 3.78-24.79L3.78-24.79L3.78-24.79Q5.12-27.48 7.57-29.11L7.57-29.11L7.57-29.11Q10.02-30.75 13.24-30.75L13.24-30.75L13.24-30.75Q14.62-30.75 16.10-30.29L16.10-30.29L16.10-30.29Q17.59-29.84 18.53-29.18L18.53-29.18L18.53-29.18Q19.48-28.51 20.21-27.13L20.21-27.13L20.21-27.13Q20.94-25.76 20.94-23.91L20.94-23.91L20.94-23.91Q20.94-21.93 20.00-20.34L20.00-20.34L20.00-20.34Q19.57-19.61 18.62-19.03L18.62-19.03L18.62-19.03Q17.67-18.45 16.38-18.45L16.38-18.45L16.38-18.45Q14.41-18.45 13.59-20.21L13.59-20.21L13.59-20.21Q13.24-20.90 13.24-21.72L13.24-21.72L13.24-21.72Q13.24-22.53 13.80-22.66L13.80-22.66L13.80-22.66Q14.41-22.83 14.92-23.61L14.92-23.61L14.92-23.61Q15.44-24.38 15.44-25.41L15.44-25.41L15.44-25.41Q15.44-26.23 15.01-26.83L15.01-26.83L15.01-26.83Q14.19-27.91 12.64-27.91L12.64-27.91L12.64-27.91Q11.09-27.91 9.83-26.49L9.83-26.49L9.83-26.49Q8.56-25.07 7.91-22.92L7.91-22.92L7.91-22.92Q6.62-18.62 6.62-15.01L6.62-15.01L6.62-15.01Q6.62-11.40 7.61-9.20L7.61-9.20L7.61-9.20Q8.82-6.49 10.66-5.59L10.66-5.59L10.66-5.59Q11.83-5.03 13.33-5.03L13.33-5.03L13.33-5.03Q15.87-5.03 17.89-7.31L17.89-7.31L17.89-7.31Q18.75-8.21 19.31-9.46L19.31-9.46L19.31-9.46Q19.52-9.85 19.87-9.85ZM32.85-22.62L32.85-22.62L32.85-22.62Q32.94-22.36 33.11-22.36L33.11-22.36L33.11-22.36Q33.28-22.36 33.45-22.53L33.45-22.53L33.45-22.53Q35.39-24.38 35.39-26.32L35.39-26.32L35.39-26.32Q35.39-27.22 34.92-27.67L34.92-27.67L34.92-27.67Q34.44-28.12 33.65-28.12L33.65-28.12L33.65-28.12Q32.85-28.12 32.38-27.48L32.38-27.48L32.38-27.48Q31.91-26.83 31.91-25.56L31.91-25.56L31.91-25.56Q31.91-24.30 32.85-22.62ZM33.80-2.80L33.80-2.80L33.80-2.80Q35.78-2.80 37.37-3.61L37.37-3.61L37.37-3.61Q35.43-6.79 33.37-11.27L33.37-11.27L33.37-11.27Q31.30-15.74 31.18-15.95L31.18-15.95L31.18-15.95Q31.05-16.17 30.96-16.17L30.96-16.17L30.70-16.04L30.70-16.04Q28.08-13.55 28.08-9.20L28.08-9.20L28.08-9.20Q28.08-6.45 29.52-4.62L29.52-4.62L29.52-4.62Q30.96-2.80 33.80-2.80ZM29.15-18.66L29.58-19.01L29.58-19.01Q29.67-19.09 29.67-19.22L29.67-19.22L29.67-19.22Q29.67-19.35 29.58-19.52L29.58-19.52L29.58-19.52Q28.12-22.19 28.12-24.68L28.12-24.68L28.12-24.68Q28.12-27.18 29.86-28.77L29.86-28.77L29.86-28.77Q31.61-30.36 34.40-30.36L34.40-30.36L34.40-30.36Q35.56-30.36 36.68-29.93L36.68-29.93L36.68-29.93Q38.79-29.11 38.79-26.75L38.79-26.75L38.79-26.75Q38.79-23.61 34.49-19.65L34.49-19.65L34.49-19.65Q34.40-19.57 34.40-19.48L34.40-19.48L34.40-19.48Q36.85-13.72 40.64-7.53L40.64-7.53L40.64-7.53Q41.32-9.50 41.32-11.87L41.32-11.87L41.32-11.87Q41.24-13.50 40.59-14.28L40.59-14.28L40.59-14.28Q40.51-14.41 40.51-14.53L40.51-14.53L40.51-14.53Q40.51-15.14 42.27-15.14L42.27-15.14L42.27-15.14Q44.03-15.14 44.57-14.49L44.57-14.49L44.57-14.49Q45.11-13.85 45.11-12.43L45.11-12.43L45.11-12.43Q45.11-7.96 42.66-4.43L42.66-4.43L42.66-4.43Q44.76-1.42 46.01-1.20L46.01-1.20L46.01-1.20Q46.40-1.08 46.42-0.71L46.42-0.71L46.42-0.71Q46.44-0.34 45.80-0.09L45.80-0.09L45.80-0.09Q43.73 0.77 42.61 0.77L42.61 0.77L42.61 0.77Q40.85 0.77 40.08 0.09L40.08 0.09L40.08 0.09Q39.78-0.22 39.09-0.99L39.09-0.99L39.09-0.99Q36.38 0.69 33.20 0.69L33.20 0.69L33.20 0.69Q28.81 0.69 25.95-1.57L25.95-1.57L25.95-1.57Q23.09-3.83 23.09-8.08L23.09-8.08L23.09-8.08Q23.09-13.80 29.15-18.66L29.15-18.66ZM56.42-26.06L56.42-26.06L56.42-26.06Q54.61-24.08 54.61-21.05L54.61-21.05L54.61-21.05Q54.61-18.02 56.16-17.42L56.16-17.42L56.16-17.42Q56.55-17.29 56.55-16.86L56.55-16.86L56.55-16.86Q56.55-15.57 55.69-14.68L55.69-14.68L55.69-14.68Q54.83-13.80 53.58-13.63L53.58-13.63L53.58-13.63Q53.19-13.63 53.19-13.33L53.19-13.33L53.19-13.33Q53.15-12.86 53.15-11.98L53.15-11.98L53.15-11.98Q53.15-11.09 53.23-10.04L53.23-10.04L53.23-10.04Q53.32-8.99 53.64-7.55L53.64-7.55L53.64-7.55Q53.97-6.11 54.50-5.05L54.50-5.05L54.50-5.05Q55.04-4.00 56.05-3.25L56.05-3.25L56.05-3.25Q57.06-2.49 58.39-2.49L58.39-2.49L58.39-2.49Q59.73-2.49 60.85-3.27L60.85-3.27L60.85-3.27Q59.86-5.50 58.78-6.45L58.78-6.45L58.44-6.75L58.44-6.75Q58.31-6.92 58.31-7.10L58.31-7.10L58.31-7.10Q58.31-7.57 59.17-7.57L59.17-7.57L59.17-7.57Q60.93-7.57 62.78-5.72L62.78-5.72L62.78-5.72Q64.41-9.07 64.41-14.45L64.41-14.45L64.41-14.45Q64.41-23.13 61.53-25.97L61.53-25.97L61.53-25.97Q60.29-27.18 58.87-27.18L58.87-27.18L58.87-27.18Q57.45-27.18 56.42-26.06ZM51.26-23.35L51.26-23.35L51.43-23.61L51.43-23.61Q51.86-25.59 52.83-27.03L52.83-27.03L52.83-27.03Q53.79-28.47 54.76-29.18L54.76-29.18L54.76-29.18Q55.73-29.89 56.93-30.27L56.93-30.27L56.93-30.27Q58.52-30.79 59.73-30.79L59.73-30.79L59.73-30.79Q62.61-30.79 64.69-29.46L64.69-29.46L64.69-29.46Q66.78-28.12 67.85-25.84L67.85-25.84L67.85-25.84Q69.83-21.50 69.83-16.00L69.83-16.00L69.83-16.00Q69.83-6.75 65.45-2.37L65.45-2.37L65.45-2.37Q67.47-0.13 69.40-0.13L69.40-0.13L69.40-0.13Q69.96-0.13 69.96 0.26L69.96 0.26L69.96 0.26Q69.96 0.95 68.37 1.74L68.37 1.74L68.37 1.74Q66.78 2.54 64.97 2.54L64.97 2.54L63.60 2.41L63.60 2.41Q63.04 2.32 62.69 2.00L62.69 2.00L62.69 2.00Q62.35 1.68 62.26 1.12L62.26 1.12L61.96-0.09L61.96-0.09Q59.94 0.73 57.84 0.73L57.84 0.73L57.84 0.73Q52.46 0.73 49.92-2.95L49.92-2.95L49.92-2.95Q47.39-6.62 47.39-12.26L47.39-12.26L47.39-12.26Q47.39-15.52 47.95-18.25L47.95-18.25L47.95-18.25Q48.50-20.98 49.11-22.10L49.11-22.10L49.67-23.22L49.67-23.22Q49.84-23.61 50.22-23.61L50.22-23.61L50.22-23.61Q50.61-23.61 50.80-23.54L50.80-23.54L50.80-23.54Q51.00-23.48 51.11-23.41L51.11-23.41L51.11-23.41Q51.21-23.35 51.26-23.35Z" fill="#444"></path></g></g><style>text {
  font-size: 64px;
  font-family: 'Montserrat', sans-serif;
  dominant-baseline: central;
  text-anchor: middle;
}</style></svg>