<svg width="185" height="184" viewBox="0 0 185 184" fill="none" xmlns="http://www.w3.org/2000/svg">
 <path d="M56.744 127.252L50.028 107.38H31.812L24.728 127.252H31.628V129H17.552V127.252H21.876L45.336 64.048H52.88L76.064 127.252H80.296V129H50.212V127.252H56.744ZM41.288 81.252L32.64 105.356H49.292L41.288 81.252ZM127.586 96.432H122.71V127.252H128.69V129H98.7902V127.252H104.77V66.348H98.7902V64.6H126.574C134.547 64.6 140.19 65.0293 143.502 65.888C146.875 66.6853 149.237 67.6667 150.586 68.832C153.53 71.224 155.002 75.0267 155.002 80.24C155.002 85.4533 153.714 89.1947 151.138 91.464C148.562 93.672 144.637 94.9907 139.362 95.42V95.696C144.33 96.3707 147.795 97.8427 149.758 100.112C151.721 102.381 152.702 106.184 152.702 111.52V116.396C152.702 119.585 152.855 121.732 153.162 122.836C153.53 123.94 154.266 124.492 155.37 124.492C156.474 124.492 157.333 124.001 157.946 123.02C158.621 121.977 159.234 119.831 159.786 116.58L161.35 116.764C160.675 121.977 159.479 125.473 157.762 127.252C156.106 129.031 152.763 129.92 147.734 129.92C142.705 129.92 139.117 128.755 136.97 126.424C134.885 124.032 133.842 119.585 133.842 113.084V106.368C133.842 102.933 133.382 100.419 132.462 98.824C131.603 97.2293 129.978 96.432 127.586 96.432ZM122.71 66.348V94.684H125.654C129.15 94.684 131.726 93.6107 133.382 91.464C135.099 89.3173 135.958 85.8213 135.958 80.976V78.308C135.958 73.4627 135.13 70.2733 133.474 68.74C131.879 67.1453 129.303 66.348 125.746 66.348H122.71Z" fill="#1D3251"/> -->
 <path d="M182.5 92C182.5 141.417 142.218 181.5 92.5 181.5C42.7816 181.5 2.5 141.417 2.5 92C2.5 42.5833 42.7816 2.5 92.5 2.5C142.218 2.5 182.5 42.5833 182.5 92Z" stroke="#1D3251" stroke-width="5"/> -->
</svg>
