<svg width="83.25999145507812px" height="92.85999145507812px" xmlns="http://www.w3.org/2000/svg" viewBox="208.37000427246093 28.57000427246094 83.25999145507812 92.85999145507812" 
style="background: transparent;" preserveAspectRatio="xMidYMid"><defs><filter id="editing-jagged" x="-100%" y="-100%" width="300%" height="300%"><feTurbulence result="turb" baseFrequency="0.08" numOctaves="1" seed="1"></feTurbulence><feDisplacementMap in="SourceGraphic" in2="turb" scale="9.5"></feDisplacementMap></filter></defs><g filter="url(#editing-jagged)"><g transform="translate(227.01499462127686, 90.84769344329834)"><path d="M12.56-27.61L12.56-27.61L12.56-27.61Q11.01-27.61 9.98-26.49L9.98-26.49L9.98-26.49Q8.17-24.51 8.17-21.48L8.17-21.48L8.17-21.48Q8.17-18.45 9.72-17.85L9.72-17.85L9.72-17.85Q10.11-17.72 10.11-17.29L10.11-17.29L10.11-17.29Q10.11-16.00 9.25-15.11L9.25-15.11L9.25-15.11Q8.39-14.23 7.14-14.06L7.14-14.06L7.14-14.06Q6.75-14.06 6.75-13.76L6.75-13.76L6.75-13.76Q6.71-13.29 6.71-12.41L6.71-12.41L6.71-12.41Q6.71-11.52 6.79-10.47L6.79-10.47L6.79-10.47Q6.88-9.42 7.20-7.98L7.20-7.98L7.20-7.98Q7.53-6.54 8.06-5.48L8.06-5.48L8.06-5.48Q8.60-4.43 9.61-3.68L9.61-3.68L9.61-3.68Q10.62-2.92 12.23-2.92L12.23-2.92L12.23-2.92Q13.85-2.92 15.14-4.21L15.14-4.21L15.14-4.21Q16.43-5.50 16.94-7.57L16.94-7.57L16.94-7.57Q17.89-11.18 17.89-14.51L17.89-14.51L17.89-14.51Q17.89-17.85 17.46-20.38L17.46-20.38L17.46-20.38Q17.03-22.92 16.45-24.25L16.45-24.25L16.45-24.25Q15.87-25.59 15.05-26.40L15.05-26.40L15.05-26.40Q14.23-27.22 13.67-27.41L13.67-27.41L13.67-27.41Q13.12-27.61 12.56-27.61ZM4.73-23.35L4.73-23.35L4.90-23.61L4.90-23.61Q5.33-25.59 6.30-27.03L6.30-27.03L6.30-27.03Q7.27-28.47 8.23-29.18L8.23-29.18L8.23-29.18Q9.20-29.89 10.41-30.27L10.41-30.27L10.41-30.27Q12.00-30.79 13.20-30.79L13.20-30.79L13.20-30.79Q16.08-30.79 18.17-29.46L18.17-29.46L18.17-29.46Q20.25-28.12 21.33-25.84L21.33-25.84L21.33-25.84Q23.31-21.50 23.31-16.00L23.31-16.00L23.31-16.00Q23.31-6.75 19.01-2.54L19.01-2.54L19.01-2.54Q16.90-0.47 14.36 0.26L14.36 0.26L14.36 0.26Q12.77 0.73 11.31 0.73L11.31 0.73L11.31 0.73Q5.93 0.73 3.40-2.95L3.40-2.95L3.40-2.95Q0.86-6.62 0.86-12.26L0.86-12.26L0.86-12.26Q0.86-15.52 1.42-18.25L1.42-18.25L1.42-18.25Q1.98-20.98 2.58-22.10L2.58-22.10L3.14-23.22L3.14-23.22Q3.31-23.61 3.70-23.61L3.70-23.61L3.70-23.61Q4.08-23.61 4.28-23.54L4.28-23.54L4.28-23.54Q4.47-23.48 4.58-23.41L4.58-23.41L4.58-23.41Q4.69-23.35 4.73-23.35ZM44.03-9.85L44.03-9.85L44.03-9.85Q44.85-9.85 44.85-7.78L44.85-7.78L44.85-7.78Q44.85-5.72 44.08-4.08L44.08-4.08L44.08-4.08Q43.30-2.45 42.20-1.55L42.20-1.55L42.20-1.55Q41.11-0.65 39.73-0.09L39.73-0.09L39.73-0.09Q35.13 1.94 31.13-0.17L31.13-0.17L31.13-0.17Q29.11-1.25 28.04-2.73L28.04-2.73L28.04-2.73Q26.96-4.21 26.32-6.28L26.32-6.28L26.32-6.28Q25.33-9.37 25.33-12.77L25.33-12.77L25.33-12.77Q25.33-16.17 25.97-19.14L25.97-19.14L25.97-19.14Q26.62-22.10 27.95-24.79L27.95-24.79L27.95-24.79Q29.28-27.48 31.73-29.11L31.73-29.11L31.73-29.11Q34.19-30.75 37.41-30.75L37.41-30.75L37.41-30.75Q38.79-30.75 40.27-30.29L40.27-30.29L40.27-30.29Q41.75-29.84 42.70-29.18L42.70-29.18L42.70-29.18Q43.65-28.51 44.38-27.13L44.38-27.13L44.38-27.13Q45.11-25.76 45.11-23.91L45.11-23.91L45.11-23.91Q45.11-21.93 44.16-20.34L44.16-20.34L44.16-20.34Q43.73-19.61 42.78-19.03L42.78-19.03L42.78-19.03Q41.84-18.45 40.55-18.45L40.55-18.45L40.55-18.45Q38.57-18.45 37.75-20.21L37.75-20.21L37.75-20.21Q37.41-20.90 37.41-21.72L37.41-21.72L37.41-21.72Q37.41-22.53 37.97-22.66L37.97-22.66L37.97-22.66Q38.57-22.83 39.09-23.61L39.09-23.61L39.09-23.61Q39.60-24.38 39.60-25.41L39.60-25.41L39.60-25.41Q39.60-26.23 39.17-26.83L39.17-26.83L39.17-26.83Q38.36-27.91 36.81-27.91L36.81-27.91L36.81-27.91Q35.26-27.91 33.99-26.49L33.99-26.49L33.99-26.49Q32.72-25.07 32.08-22.92L32.08-22.92L32.08-22.92Q30.79-18.62 30.79-15.01L30.79-15.01L30.79-15.01Q30.79-11.40 31.78-9.20L31.78-9.20L31.78-9.20Q32.98-6.49 34.83-5.59L34.83-5.59L34.83-5.59Q35.99-5.03 37.50-5.03L37.50-5.03L37.50-5.03Q40.03-5.03 42.05-7.31L42.05-7.31L42.05-7.31Q42.91-8.21 43.47-9.46L43.47-9.46L43.47-9.46Q43.69-9.85 44.03-9.85Z" fill="#FFFFFF"></path></g></g>
</svg>