<svg width="145" height="66" viewBox="0 0 145 66" fill="none" xmlns="http://www.w3.org/2000/svg">
<path d="M39.744 63.252L33.028 43.38H14.812L7.728 63.252H14.628V65H0.552V63.252H4.876L28.336 0.0479972H35.88L59.064 63.252H63.296V65H33.212V63.252H39.744ZM24.288 17.252L15.64 41.356H32.292L24.288 17.252ZM110.586 32.432H105.71V63.252H111.69V65H81.7902V63.252H87.7702V2.348H81.7902V0.599996H109.574C117.547 0.599996 123.19 1.02933 126.502 1.888C129.875 2.68533 132.237 3.66666 133.586 4.832C136.53 7.224 138.002 11.0267 138.002 16.24C138.002 21.4533 136.714 25.1947 134.138 27.464C131.562 29.672 127.637 30.9907 122.362 31.42V31.696C127.33 32.3707 130.795 33.8427 132.758 36.112C134.721 38.3813 135.702 42.184 135.702 47.52V52.396C135.702 55.5853 135.855 57.732 136.162 58.836C136.53 59.94 137.266 60.492 138.37 60.492C139.474 60.492 140.333 60.0013 140.946 59.02C141.621 57.9773 142.234 55.8307 142.786 52.58L144.35 52.764C143.675 57.9773 142.479 61.4733 140.762 63.252C139.106 65.0307 135.763 65.92 130.734 65.92C125.705 65.92 122.117 64.7547 119.97 62.424C117.885 60.032 116.842 55.5853 116.842 49.084V42.368C116.842 38.9333 116.382 36.4187 115.462 34.824C114.603 33.2293 112.978 32.432 110.586 32.432ZM105.71 2.348V30.684H108.654C112.15 30.684 114.726 29.6107 116.382 27.464C118.099 25.3173 118.958 21.8213 118.958 16.976V14.308C118.958 9.46266 118.13 6.27333 116.474 4.74C114.879 3.14533 112.303 2.348 108.746 2.348H105.71Z" fill="#C8FFD3"/>
</svg>
