<svg width="103.77999877929688px" height="92.85999145507812px" 
xmlns="http://www.w3.org/2000/svg" 
viewBox="198.11000061035156 28.57000427246094 103.77999877929688 92.85999145507812" 
style="background: transparent;" preserveAspectRatio="xMidYMid"><defs><filter id="editing-jagged" x="-100%" y="-100%" width="300%" height="300%"><feTurbulence result="turb" baseFrequency="0.16" numOctaves="1" seed="1"></feTurbulence><feDisplacementMap in="SourceGraphic" in2="turb" scale="5.5"></feDisplacementMap></filter></defs><g filter="url(#editing-jagged)"><g transform="translate(219.834996342659, 90.91499996185303)"><path d="M3.10-7.74L3.10-7.74L3.35-15.35L0.47-15.35L0.47-15.35Q0.13-15.35 0.13-15.61L0.13-15.61L0.13-15.61Q0.13-16.38 0.86-17.39L0.86-17.39L0.86-17.39Q1.59-18.40 2.45-18.40L2.45-18.40L3.35-18.40L3.35-18.40Q3.27-21.76 3.18-23.22L3.18-23.22L3.18-23.22Q3.01-25.84 2.32-27.26L2.32-27.26L2.11-27.69L2.11-27.69Q1.94-27.91 1.94-28.21L1.94-28.21L1.94-28.21Q1.94-28.51 2.41-28.72L2.41-28.72L2.41-28.72Q2.88-28.94 3.81-29.24L3.81-29.24L3.81-29.24Q4.73-29.54 7.74-30.04L7.74-30.04L7.74-30.04Q10.75-30.53 14.30-30.53L14.30-30.53L14.30-30.53Q17.85-30.53 18.17-30.01L18.17-30.01L18.17-30.01Q18.49-29.50 18.49-28.40L18.49-28.40L18.49-28.40Q18.49-27.31 18.19-27.31L18.19-27.31L18.19-27.31Q18.15-27.31 17.89-27.35L17.89-27.35L17.89-27.35Q17.20-27.52 15.78-27.52L15.78-27.52L15.78-27.52Q14.36-27.52 12.73-27.26L12.73-27.26L12.73-27.26Q11.09-27.00 10.23-26.75L10.23-26.75L9.42-26.45L9.42-26.45Q9.07-26.36 8.90-25.84L8.90-25.84L8.90-25.84Q8.56-23.31 8.56-18.40L8.56-18.40L15.52-18.40L15.52-18.40Q15.91-18.40 15.91-18.15L15.91-18.15L15.91-18.15Q15.91-17.37 15.22-16.34L15.22-16.34L15.22-16.34Q14.53-15.31 13.67-15.31L13.67-15.31L8.56-15.35L8.86-2.45L8.86-2.45Q8.86-1.51 8.56-1.08L8.56-1.08L8.56-1.08Q7.74 0 5.78 0.54L5.78 0.54L5.78 0.54Q3.83 1.08 2.54 1.08L2.54 1.08L2.54 1.08Q2.19 1.08 2.19 0.65L2.19 0.65L2.19 0.65Q2.19 0.43 2.24 0.30L2.24 0.30L2.24 0.30Q2.75-0.43 3.10-7.74ZM37.37-9.85L37.37-9.85L37.37-9.85Q38.18-9.85 38.18-7.78L38.18-7.78L38.18-7.78Q38.18-5.72 37.41-4.08L37.41-4.08L37.41-4.08Q36.64-2.45 35.54-1.55L35.54-1.55L35.54-1.55Q34.44-0.65 33.07-0.09L33.07-0.09L33.07-0.09Q28.47 1.94 24.47-0.17L24.47-0.17L24.47-0.17Q22.45-1.25 21.37-2.73L21.37-2.73L21.37-2.73Q20.30-4.21 19.65-6.28L19.65-6.28L19.65-6.28Q18.66-9.37 18.66-12.77L18.66-12.77L18.66-12.77Q18.66-16.17 19.31-19.14L19.31-19.14L19.31-19.14Q19.95-22.10 21.29-24.79L21.29-24.79L21.29-24.79Q22.62-27.48 25.07-29.11L25.07-29.11L25.07-29.11Q27.52-30.75 30.75-30.75L30.75-30.75L30.75-30.75Q32.12-30.75 33.60-30.29L33.60-30.29L33.60-30.29Q35.09-29.84 36.03-29.18L36.03-29.18L36.03-29.18Q36.98-28.51 37.71-27.13L37.71-27.13L37.71-27.13Q38.44-25.76 38.44-23.91L38.44-23.91L38.44-23.91Q38.44-21.93 37.50-20.34L37.50-20.34L37.50-20.34Q37.07-19.61 36.12-19.03L36.12-19.03L36.12-19.03Q35.17-18.45 33.88-18.45L33.88-18.45L33.88-18.45Q31.91-18.45 31.09-20.21L31.09-20.21L31.09-20.21Q30.75-20.90 30.75-21.72L30.75-21.72L30.75-21.72Q30.75-22.53 31.30-22.66L31.30-22.66L31.30-22.66Q31.91-22.83 32.42-23.61L32.42-23.61L32.42-23.61Q32.94-24.38 32.94-25.41L32.94-25.41L32.94-25.41Q32.94-26.23 32.51-26.83L32.51-26.83L32.51-26.83Q31.69-27.91 30.14-27.91L30.14-27.91L30.14-27.91Q28.60-27.91 27.33-26.49L27.33-26.49L27.33-26.49Q26.06-25.07 25.41-22.92L25.41-22.92L25.41-22.92Q24.12-18.62 24.12-15.01L24.12-15.01L24.12-15.01Q24.12-11.40 25.11-9.20L25.11-9.20L25.11-9.20Q26.32-6.49 28.17-5.59L28.17-5.59L28.17-5.59Q29.33-5.03 30.83-5.03L30.83-5.03L30.83-5.03Q33.37-5.03 35.39-7.31L35.39-7.31L35.39-7.31Q36.25-8.21 36.81-9.46L36.81-9.46L36.81-9.46Q37.02-9.85 37.37-9.85ZM59.13-9.85L59.13-9.85L59.13-9.85Q59.94-9.85 59.94-7.78L59.94-7.78L59.94-7.78Q59.94-5.72 59.17-4.08L59.17-4.08L59.17-4.08Q58.39-2.45 57.30-1.55L57.30-1.55L57.30-1.55Q56.20-0.65 54.83-0.09L54.83-0.09L54.83-0.09Q50.22 1.94 46.23-0.17L46.23-0.17L46.23-0.17Q44.20-1.25 43.13-2.73L43.13-2.73L43.13-2.73Q42.05-4.21 41.41-6.28L41.41-6.28L41.41-6.28Q40.42-9.37 40.42-12.77L40.42-12.77L40.42-12.77Q40.42-16.17 41.06-19.14L41.06-19.14L41.06-19.14Q41.71-22.10 43.04-24.79L43.04-24.79L43.04-24.79Q44.38-27.48 46.83-29.11L46.83-29.11L46.83-29.11Q49.28-30.75 52.50-30.75L52.50-30.75L52.50-30.75Q53.88-30.75 55.36-30.29L55.36-30.29L55.36-30.29Q56.85-29.84 57.79-29.18L57.79-29.18L57.79-29.18Q58.74-28.51 59.47-27.13L59.47-27.13L59.47-27.13Q60.20-25.76 60.20-23.91L60.20-23.91L60.20-23.91Q60.20-21.93 59.25-20.34L59.25-20.34L59.25-20.34Q58.82-19.61 57.88-19.03L57.88-19.03L57.88-19.03Q56.93-18.45 55.64-18.45L55.64-18.45L55.64-18.45Q53.66-18.45 52.85-20.21L52.85-20.21L52.85-20.21Q52.50-20.90 52.50-21.72L52.50-21.72L52.50-21.72Q52.50-22.53 53.06-22.66L53.06-22.66L53.06-22.66Q53.66-22.83 54.18-23.61L54.18-23.61L54.18-23.61Q54.70-24.38 54.70-25.41L54.70-25.41L54.70-25.41Q54.70-26.23 54.27-26.83L54.27-26.83L54.27-26.83Q53.45-27.91 51.90-27.91L51.90-27.91L51.90-27.91Q50.35-27.91 49.08-26.49L49.08-26.49L49.08-26.49Q47.82-25.07 47.17-22.92L47.17-22.92L47.17-22.92Q45.88-18.62 45.88-15.01L45.88-15.01L45.88-15.01Q45.88-11.40 46.87-9.20L46.87-9.20L46.87-9.20Q48.07-6.49 49.92-5.59L49.92-5.59L49.92-5.59Q51.08-5.03 52.59-5.03L52.59-5.03L52.59-5.03Q55.13-5.03 57.15-7.31L57.15-7.31L57.15-7.31Q58.01-8.21 58.57-9.46L58.57-9.46L58.57-9.46Q58.78-9.85 59.13-9.85Z" fill="#FFFFFF"></path></g></g><style>text {

}</style></svg>