<svg id="visual" viewBox="0 0 900 600" width="900" height="600" xmlns="http://www.w3.org/2000/svg" xmlns:xlink="http://www.w3.org/1999/xlink" version="1.1"><g stroke-width="1" stroke-linejoin="bevel"><path d="M448 288L446 336L468 316Z" fill="#7f9eac" stroke="#7f9eac"></path><path d="M448 288L404 341L446 336Z" fill="#4d6b7e" stroke="#4d6b7e"></path><path d="M446 336L504 330L468 316Z" fill="#29455b" stroke="#29455b"></path><path d="M532 298L463 230L448 288Z" fill="#3b586c" stroke="#3b586c"></path><path d="M514 455L504 330L446 336Z" fill="#446175" stroke="#446175"></path><path d="M463 230L398 248L448 288Z" fill="#3b586c" stroke="#3b586c"></path><path d="M448 288L398 248L404 341Z" fill="#29455b" stroke="#29455b"></path><path d="M532 298L448 288L468 316Z" fill="#617f90" stroke="#617f90"></path><path d="M504 330L532 298L468 316Z" fill="#446175" stroke="#446175"></path><path d="M338 294L374 369L404 341Z" fill="#6b899a" stroke="#6b899a"></path><path d="M404 341L381 388L446 336Z" fill="#7f9eac" stroke="#7f9eac"></path><path d="M374 369L381 388L404 341Z" fill="#6b899a" stroke="#6b899a"></path><path d="M398 248L338 294L404 341Z" fill="#4d6b7e" stroke="#4d6b7e"></path><path d="M374 369L319 387L381 388Z" fill="#577587" stroke="#577587"></path><path d="M398 248L331 276L338 294Z" fill="#3b586c" stroke="#3b586c"></path><path d="M510 169L454 191L463 230Z" fill="#3b586c" stroke="#3b586c"></path><path d="M463 230L454 191L398 248Z" fill="#6b899a" stroke="#6b899a"></path><path d="M398 248L327 269L331 276Z" fill="#617f90" stroke="#617f90"></path><path d="M510 169L453 188L454 191Z" fill="#617f90" stroke="#617f90"></path><path d="M454 191L453 188L398 248Z" fill="#7593a3" stroke="#7593a3"></path><path d="M381 388L415 433L446 336Z" fill="#4d6b7e" stroke="#4d6b7e"></path><path d="M504 330L585 349L532 298Z" fill="#446175" stroke="#446175"></path><path d="M297 230L327 269L327 173Z" fill="#7593a3" stroke="#7593a3"></path><path d="M331 276L269 286L338 294Z" fill="#7f9eac" stroke="#7f9eac"></path><path d="M570 411L585 349L504 330Z" fill="#3b586c" stroke="#3b586c"></path><path d="M570 213L510 169L463 230Z" fill="#7f9eac" stroke="#7f9eac"></path><path d="M338 294L319 387L374 369Z" fill="#7f9eac" stroke="#7f9eac"></path><path d="M381 388L306 471L415 433Z" fill="#577587" stroke="#577587"></path><path d="M269 286L319 387L338 294Z" fill="#8aa8b6" stroke="#8aa8b6"></path><path d="M570 213L463 230L532 298Z" fill="#7f9eac" stroke="#7f9eac"></path><path d="M415 433L514 455L446 336Z" fill="#446175" stroke="#446175"></path><path d="M589 221L570 213L532 298Z" fill="#577587" stroke="#577587"></path><path d="M514 455L570 411L504 330Z" fill="#617f90" stroke="#617f90"></path><path d="M327 173L398 248L358 148Z" fill="#577587" stroke="#577587"></path><path d="M327 173L327 269L398 248Z" fill="#8aa8b6" stroke="#8aa8b6"></path><path d="M327 269L269 286L331 276Z" fill="#7593a3" stroke="#7593a3"></path><path d="M632 314L589 221L532 298Z" fill="#7593a3" stroke="#7593a3"></path><path d="M570 213L521 140L510 169Z" fill="#446175" stroke="#446175"></path><path d="M415 433L490 478L514 455Z" fill="#7593a3" stroke="#7593a3"></path><path d="M580 487L614 401L570 411Z" fill="#29455b" stroke="#29455b"></path><path d="M448 496L490 478L415 433Z" fill="#577587" stroke="#577587"></path><path d="M297 230L269 286L327 269Z" fill="#4d6b7e" stroke="#4d6b7e"></path><path d="M358 148L398 248L453 188Z" fill="#3b586c" stroke="#3b586c"></path><path d="M683 212L590 202L589 221Z" fill="#617f90" stroke="#617f90"></path><path d="M589 221L590 202L570 213Z" fill="#29455b" stroke="#29455b"></path><path d="M354 509L448 496L415 433Z" fill="#6b899a" stroke="#6b899a"></path><path d="M381 108L358 148L453 188Z" fill="#7f9eac" stroke="#7f9eac"></path><path d="M640 372L632 314L585 349Z" fill="#446175" stroke="#446175"></path><path d="M585 349L632 314L532 298Z" fill="#3b586c" stroke="#3b586c"></path><path d="M590 202L521 140L570 213Z" fill="#7593a3" stroke="#7593a3"></path><path d="M510 169L468 108L453 188Z" fill="#6b899a" stroke="#6b899a"></path><path d="M580 487L570 411L514 455Z" fill="#577587" stroke="#577587"></path><path d="M570 411L614 401L585 349Z" fill="#8aa8b6" stroke="#8aa8b6"></path><path d="M325 145L270 212L327 173Z" fill="#446175" stroke="#446175"></path><path d="M327 173L270 212L297 230Z" fill="#7593a3" stroke="#7593a3"></path><path d="M297 230L270 212L269 286Z" fill="#4d6b7e" stroke="#4d6b7e"></path><path d="M229 385L280 434L319 387Z" fill="#4d6b7e" stroke="#4d6b7e"></path><path d="M319 387L306 471L381 388Z" fill="#4d6b7e" stroke="#4d6b7e"></path><path d="M614 401L640 372L585 349Z" fill="#7593a3" stroke="#7593a3"></path><path d="M381 108L325 145L358 148Z" fill="#3b586c" stroke="#3b586c"></path><path d="M358 148L325 145L327 173Z" fill="#8aa8b6" stroke="#8aa8b6"></path><path d="M521 140L468 108L510 169Z" fill="#7593a3" stroke="#7593a3"></path><path d="M280 434L306 471L319 387Z" fill="#617f90" stroke="#617f90"></path><path d="M473 530L527 507L490 478Z" fill="#29455b" stroke="#29455b"></path><path d="M490 478L527 507L514 455Z" fill="#6b899a" stroke="#6b899a"></path><path d="M614 401L673 403L640 372Z" fill="#324e64" stroke="#324e64"></path><path d="M439 89L381 108L453 188Z" fill="#6b899a" stroke="#6b899a"></path><path d="M473 530L530 508L527 507Z" fill="#8aa8b6" stroke="#8aa8b6"></path><path d="M527 507L530 508L514 455Z" fill="#617f90" stroke="#617f90"></path><path d="M710 266L738 336L737 290Z" fill="#8aa8b6" stroke="#8aa8b6"></path><path d="M632 314L656 274L589 221Z" fill="#617f90" stroke="#617f90"></path><path d="M306 471L354 509L415 433Z" fill="#3b586c" stroke="#3b586c"></path><path d="M448 496L473 530L490 478Z" fill="#7593a3" stroke="#7593a3"></path><path d="M389 556L473 530L448 496Z" fill="#3b586c" stroke="#3b586c"></path><path d="M530 508L580 487L514 455Z" fill="#446175" stroke="#446175"></path><path d="M449 87L439 89L468 108Z" fill="#29455b" stroke="#29455b"></path><path d="M468 108L439 89L453 188Z" fill="#3b586c" stroke="#3b586c"></path><path d="M456 76L449 87L468 108Z" fill="#4d6b7e" stroke="#4d6b7e"></path><path d="M215 360L229 385L269 286Z" fill="#8aa8b6" stroke="#8aa8b6"></path><path d="M269 286L229 385L319 387Z" fill="#577587" stroke="#577587"></path><path d="M280 434L238 455L306 471Z" fill="#4d6b7e" stroke="#4d6b7e"></path><path d="M207 180L215 269L270 212Z" fill="#617f90" stroke="#617f90"></path><path d="M270 212L215 269L269 286Z" fill="#4d6b7e" stroke="#4d6b7e"></path><path d="M215 269L215 360L269 286Z" fill="#7f9eac" stroke="#7f9eac"></path><path d="M527 27L456 76L468 108Z" fill="#577587" stroke="#577587"></path><path d="M449 87L456 76L439 89Z" fill="#577587" stroke="#577587"></path><path d="M439 89L337 53L381 108Z" fill="#446175" stroke="#446175"></path><path d="M527 27L468 108L521 140Z" fill="#7593a3" stroke="#7593a3"></path><path d="M306 471L332 525L354 509Z" fill="#4d6b7e" stroke="#4d6b7e"></path><path d="M354 509L389 556L448 496Z" fill="#617f90" stroke="#617f90"></path><path d="M249 512L332 525L306 471Z" fill="#7f9eac" stroke="#7f9eac"></path><path d="M692 453L673 403L614 401Z" fill="#3b586c" stroke="#3b586c"></path><path d="M710 266L656 274L738 336Z" fill="#617f90" stroke="#617f90"></path><path d="M215 360L201 355L229 385Z" fill="#446175" stroke="#446175"></path><path d="M229 385L238 455L280 434Z" fill="#7f9eac" stroke="#7f9eac"></path><path d="M215 269L201 355L215 360Z" fill="#577587" stroke="#577587"></path><path d="M332 525L389 556L354 509Z" fill="#8aa8b6" stroke="#8aa8b6"></path><path d="M196 439L238 455L229 385Z" fill="#6b899a" stroke="#6b899a"></path><path d="M683 212L625 132L590 202Z" fill="#7f9eac" stroke="#7f9eac"></path><path d="M590 202L625 132L521 140Z" fill="#4d6b7e" stroke="#4d6b7e"></path><path d="M656 274L683 212L589 221Z" fill="#6b899a" stroke="#6b899a"></path><path d="M692 214L683 212L710 266Z" fill="#446175" stroke="#446175"></path><path d="M710 266L683 212L656 274Z" fill="#577587" stroke="#577587"></path><path d="M683 212L650 120L625 132Z" fill="#6b899a" stroke="#6b899a"></path><path d="M357 600L389 556L332 525Z" fill="#324e64" stroke="#324e64"></path><path d="M357 600L394 575L389 556Z" fill="#3b586c" stroke="#3b586c"></path><path d="M389 556L394 575L473 530Z" fill="#577587" stroke="#577587"></path><path d="M514 600L585 571L530 508Z" fill="#7f9eac" stroke="#7f9eac"></path><path d="M705 510L692 453L580 487Z" fill="#577587" stroke="#577587"></path><path d="M656 274L632 314L738 336Z" fill="#4d6b7e" stroke="#4d6b7e"></path><path d="M218 122L270 212L325 145Z" fill="#617f90" stroke="#617f90"></path><path d="M218 122L207 180L270 212Z" fill="#446175" stroke="#446175"></path><path d="M215 269L131 271L201 355Z" fill="#7593a3" stroke="#7593a3"></path><path d="M337 53L325 145L381 108Z" fill="#7593a3" stroke="#7593a3"></path><path d="M201 355L196 439L229 385Z" fill="#29455b" stroke="#29455b"></path><path d="M238 455L249 512L306 471Z" fill="#8aa8b6" stroke="#8aa8b6"></path><path d="M170 454L196 439L136 381Z" fill="#7593a3" stroke="#7593a3"></path><path d="M170 454L249 512L238 455Z" fill="#7593a3" stroke="#7593a3"></path><path d="M425 0L337 53L439 89Z" fill="#446175" stroke="#446175"></path><path d="M709 120L650 120L683 212Z" fill="#7593a3" stroke="#7593a3"></path><path d="M610 43L527 27L521 140Z" fill="#4d6b7e" stroke="#4d6b7e"></path><path d="M585 571L580 487L530 508Z" fill="#7f9eac" stroke="#7f9eac"></path><path d="M580 487L692 453L614 401Z" fill="#577587" stroke="#577587"></path><path d="M738 336L632 314L640 372Z" fill="#324e64" stroke="#324e64"></path><path d="M357 600L451 600L394 575Z" fill="#6b899a" stroke="#6b899a"></path><path d="M394 575L451 600L473 530Z" fill="#3b586c" stroke="#3b586c"></path><path d="M710 266L725 199L692 214Z" fill="#446175" stroke="#446175"></path><path d="M692 214L725 199L683 212Z" fill="#617f90" stroke="#617f90"></path><path d="M738 336L640 372L673 403Z" fill="#4d6b7e" stroke="#4d6b7e"></path><path d="M744 385L738 336L673 403Z" fill="#617f90" stroke="#617f90"></path><path d="M514 600L530 508L473 530Z" fill="#324e64" stroke="#324e64"></path><path d="M337 53L218 122L325 145Z" fill="#3b586c" stroke="#3b586c"></path><path d="M451 600L514 600L473 530Z" fill="#446175" stroke="#446175"></path><path d="M610 43L521 140L625 132Z" fill="#8aa8b6" stroke="#8aa8b6"></path><path d="M425 0L328 34L337 53Z" fill="#4d6b7e" stroke="#4d6b7e"></path><path d="M148 157L157 226L207 180Z" fill="#446175" stroke="#446175"></path><path d="M207 180L157 226L215 269Z" fill="#617f90" stroke="#617f90"></path><path d="M284 600L357 600L332 525Z" fill="#324e64" stroke="#324e64"></path><path d="M425 0L439 89L456 76Z" fill="#324e64" stroke="#324e64"></path><path d="M337 53L328 34L218 122Z" fill="#617f90" stroke="#617f90"></path><path d="M794 254L725 199L710 266Z" fill="#6b899a" stroke="#6b899a"></path><path d="M692 453L744 385L673 403Z" fill="#4d6b7e" stroke="#4d6b7e"></path><path d="M802 266L794 254L737 290Z" fill="#324e64" stroke="#324e64"></path><path d="M196 439L170 454L238 455Z" fill="#324e64" stroke="#324e64"></path><path d="M249 512L284 600L332 525Z" fill="#446175" stroke="#446175"></path><path d="M136 381L196 439L201 355Z" fill="#29455b" stroke="#29455b"></path><path d="M527 27L447 0L456 76Z" fill="#3b586c" stroke="#3b586c"></path><path d="M514 600L565 600L585 571Z" fill="#3b586c" stroke="#3b586c"></path><path d="M585 571L636 575L580 487Z" fill="#7593a3" stroke="#7593a3"></path><path d="M447 0L425 0L456 76Z" fill="#324e64" stroke="#324e64"></path><path d="M131 271L136 381L201 355Z" fill="#29455b" stroke="#29455b"></path><path d="M157 226L131 271L215 269Z" fill="#7593a3" stroke="#7593a3"></path><path d="M650 120L610 43L625 132Z" fill="#7593a3" stroke="#7593a3"></path><path d="M527 27L534 0L447 0Z" fill="#7593a3" stroke="#7593a3"></path><path d="M667 32L610 43L650 120Z" fill="#7f9eac" stroke="#7f9eac"></path><path d="M572 0L534 0L527 27Z" fill="#6b899a" stroke="#6b899a"></path><path d="M616 600L636 575L585 571Z" fill="#577587" stroke="#577587"></path><path d="M692 453L786 438L744 385Z" fill="#324e64" stroke="#324e64"></path><path d="M725 199L709 120L683 212Z" fill="#4d6b7e" stroke="#4d6b7e"></path><path d="M192 25L176 124L218 122Z" fill="#8aa8b6" stroke="#8aa8b6"></path><path d="M218 122L176 124L207 180Z" fill="#29455b" stroke="#29455b"></path><path d="M157 226L100 243L131 271Z" fill="#324e64" stroke="#324e64"></path><path d="M636 575L705 510L580 487Z" fill="#4d6b7e" stroke="#4d6b7e"></path><path d="M204 600L284 600L249 512Z" fill="#29455b" stroke="#29455b"></path><path d="M425 0L328 0L328 34Z" fill="#7f9eac" stroke="#7f9eac"></path><path d="M328 34L275 0L218 122Z" fill="#324e64" stroke="#324e64"></path><path d="M176 124L148 157L207 180Z" fill="#8aa8b6" stroke="#8aa8b6"></path><path d="M565 600L616 600L585 571Z" fill="#7593a3" stroke="#7593a3"></path><path d="M636 575L701 550L705 510Z" fill="#617f90" stroke="#617f90"></path><path d="M659 0L572 0L610 43Z" fill="#8aa8b6" stroke="#8aa8b6"></path><path d="M610 43L572 0L527 27Z" fill="#8aa8b6" stroke="#8aa8b6"></path><path d="M763 144L703 89L709 120Z" fill="#446175" stroke="#446175"></path><path d="M709 120L703 89L650 120Z" fill="#8aa8b6" stroke="#8aa8b6"></path><path d="M616 600L636 600L636 575Z" fill="#446175" stroke="#446175"></path><path d="M328 0L287 0L328 34Z" fill="#617f90" stroke="#617f90"></path><path d="M691 600L701 550L636 575Z" fill="#617f90" stroke="#617f90"></path><path d="M777 474L786 438L692 453Z" fill="#577587" stroke="#577587"></path><path d="M93 191L100 243L157 226Z" fill="#4d6b7e" stroke="#4d6b7e"></path><path d="M131 271L65 342L136 381Z" fill="#446175" stroke="#446175"></path><path d="M108 125L123 167L148 157Z" fill="#8aa8b6" stroke="#8aa8b6"></path><path d="M148 157L123 167L157 226Z" fill="#3b586c" stroke="#3b586c"></path><path d="M108 125L148 157L176 124Z" fill="#4d6b7e" stroke="#4d6b7e"></path><path d="M136 381L120 452L170 454Z" fill="#577587" stroke="#577587"></path><path d="M170 454L172 554L249 512Z" fill="#446175" stroke="#446175"></path><path d="M38 408L120 452L136 381Z" fill="#617f90" stroke="#617f90"></path><path d="M802 266L737 290L809 318Z" fill="#324e64" stroke="#324e64"></path><path d="M737 290L794 254L710 266Z" fill="#8aa8b6" stroke="#8aa8b6"></path><path d="M725 199L763 144L709 120Z" fill="#7593a3" stroke="#7593a3"></path><path d="M737 290L738 336L809 318Z" fill="#617f90" stroke="#617f90"></path><path d="M287 0L275 0L328 34Z" fill="#7f9eac" stroke="#7f9eac"></path><path d="M703 89L667 32L650 120Z" fill="#617f90" stroke="#617f90"></path><path d="M814 187L763 144L725 199Z" fill="#4d6b7e" stroke="#4d6b7e"></path><path d="M747 0L659 0L667 32Z" fill="#4d6b7e" stroke="#4d6b7e"></path><path d="M809 318L738 336L811 391Z" fill="#7f9eac" stroke="#7f9eac"></path><path d="M794 254L809 226L725 199Z" fill="#8aa8b6" stroke="#8aa8b6"></path><path d="M120 452L125 482L170 454Z" fill="#617f90" stroke="#617f90"></path><path d="M125 482L172 554L170 454Z" fill="#29455b" stroke="#29455b"></path><path d="M777 474L692 453L705 510Z" fill="#7f9eac" stroke="#7f9eac"></path><path d="M811 391L738 336L744 385Z" fill="#29455b" stroke="#29455b"></path><path d="M815 563L777 474L705 510Z" fill="#6b899a" stroke="#6b899a"></path><path d="M123 167L93 191L157 226Z" fill="#7593a3" stroke="#7593a3"></path><path d="M43 265L65 342L131 271Z" fill="#4d6b7e" stroke="#4d6b7e"></path><path d="M108 125L93 191L123 167Z" fill="#7593a3" stroke="#7593a3"></path><path d="M275 0L206 24L218 122Z" fill="#577587" stroke="#577587"></path><path d="M852 170L809 226L900 214Z" fill="#29455b" stroke="#29455b"></path><path d="M802 266L809 226L794 254Z" fill="#7593a3" stroke="#7593a3"></path><path d="M172 554L204 600L249 512Z" fill="#324e64" stroke="#324e64"></path><path d="M786 438L811 391L744 385Z" fill="#3b586c" stroke="#3b586c"></path><path d="M809 318L900 292L802 266Z" fill="#6b899a" stroke="#6b899a"></path><path d="M826 397L811 391L786 438Z" fill="#577587" stroke="#577587"></path><path d="M104 600L201 600L172 554Z" fill="#617f90" stroke="#617f90"></path><path d="M172 554L201 600L204 600Z" fill="#446175" stroke="#446175"></path><path d="M667 32L659 0L610 43Z" fill="#7593a3" stroke="#7593a3"></path><path d="M747 0L667 32L703 89Z" fill="#324e64" stroke="#324e64"></path><path d="M815 563L821 508L777 474Z" fill="#8aa8b6" stroke="#8aa8b6"></path><path d="M636 600L691 600L636 575Z" fill="#446175" stroke="#446175"></path><path d="M43 265L131 271L100 243Z" fill="#3b586c" stroke="#3b586c"></path><path d="M120 452L85 473L125 482Z" fill="#6b899a" stroke="#6b899a"></path><path d="M180 0L192 25L206 24Z" fill="#6b899a" stroke="#6b899a"></path><path d="M206 24L192 25L218 122Z" fill="#8aa8b6" stroke="#8aa8b6"></path><path d="M98 44L108 125L176 124Z" fill="#617f90" stroke="#617f90"></path><path d="M826 397L831 356L811 391Z" fill="#8aa8b6" stroke="#8aa8b6"></path><path d="M811 391L831 356L809 318Z" fill="#8aa8b6" stroke="#8aa8b6"></path><path d="M60 111L69 207L93 191Z" fill="#8aa8b6" stroke="#8aa8b6"></path><path d="M93 191L69 207L100 243Z" fill="#29455b" stroke="#29455b"></path><path d="M852 170L814 187L809 226Z" fill="#6b899a" stroke="#6b899a"></path><path d="M809 226L814 187L725 199Z" fill="#577587" stroke="#577587"></path><path d="M763 144L784 52L703 89Z" fill="#3b586c" stroke="#3b586c"></path><path d="M900 450L826 397L786 438Z" fill="#6b899a" stroke="#6b899a"></path><path d="M38 408L85 473L120 452Z" fill="#4d6b7e" stroke="#4d6b7e"></path><path d="M125 482L86 521L172 554Z" fill="#4d6b7e" stroke="#4d6b7e"></path><path d="M69 207L43 265L100 243Z" fill="#7593a3" stroke="#7593a3"></path><path d="M0 499L86 521L85 473Z" fill="#577587" stroke="#577587"></path><path d="M192 25L98 44L176 124Z" fill="#617f90" stroke="#617f90"></path><path d="M275 0L180 0L206 24Z" fill="#29455b" stroke="#29455b"></path><path d="M38 408L136 381L65 342Z" fill="#446175" stroke="#446175"></path><path d="M85 473L86 521L125 482Z" fill="#6b899a" stroke="#6b899a"></path><path d="M0 367L38 408L65 342Z" fill="#3b586c" stroke="#3b586c"></path><path d="M815 563L705 510L701 550Z" fill="#7f9eac" stroke="#7f9eac"></path><path d="M777 474L821 508L786 438Z" fill="#7f9eac" stroke="#7f9eac"></path><path d="M900 369L900 292L831 356Z" fill="#7f9eac" stroke="#7f9eac"></path><path d="M822 93L784 52L763 144Z" fill="#324e64" stroke="#324e64"></path><path d="M691 600L764 600L701 550Z" fill="#324e64" stroke="#324e64"></path><path d="M900 292L809 226L802 266Z" fill="#324e64" stroke="#324e64"></path><path d="M814 187L822 93L763 144Z" fill="#617f90" stroke="#617f90"></path><path d="M900 292L809 318L831 356Z" fill="#7593a3" stroke="#7593a3"></path><path d="M180 0L144 0L192 25Z" fill="#7f9eac" stroke="#7f9eac"></path><path d="M108 125L60 111L93 191Z" fill="#3b586c" stroke="#3b586c"></path><path d="M69 207L0 226L43 265Z" fill="#577587" stroke="#577587"></path><path d="M64 82L60 111L108 125Z" fill="#324e64" stroke="#324e64"></path><path d="M784 52L747 0L703 89Z" fill="#446175" stroke="#446175"></path><path d="M852 170L822 93L814 187Z" fill="#4d6b7e" stroke="#4d6b7e"></path><path d="M784 52L773 0L747 0Z" fill="#446175" stroke="#446175"></path><path d="M144 0L98 44L192 25Z" fill="#29455b" stroke="#29455b"></path><path d="M0 518L81 564L86 521Z" fill="#6b899a" stroke="#6b899a"></path><path d="M86 521L81 564L172 554Z" fill="#324e64" stroke="#324e64"></path><path d="M43 265L0 314L65 342Z" fill="#3b586c" stroke="#3b586c"></path><path d="M38 408L0 499L85 473Z" fill="#6b899a" stroke="#6b899a"></path><path d="M0 226L0 314L43 265Z" fill="#324e64" stroke="#324e64"></path><path d="M98 44L64 82L108 125Z" fill="#7f9eac" stroke="#7f9eac"></path><path d="M0 145L0 226L69 207Z" fill="#446175" stroke="#446175"></path><path d="M81 564L104 600L172 554Z" fill="#324e64" stroke="#324e64"></path><path d="M0 314L0 367L65 342Z" fill="#7593a3" stroke="#7593a3"></path><path d="M764 600L815 563L701 550Z" fill="#3b586c" stroke="#3b586c"></path><path d="M815 563L846 514L821 508Z" fill="#617f90" stroke="#617f90"></path><path d="M900 450L900 439L826 397Z" fill="#6b899a" stroke="#6b899a"></path><path d="M0 145L69 207L60 111Z" fill="#7593a3" stroke="#7593a3"></path><path d="M861 0L773 0L784 52Z" fill="#7593a3" stroke="#7593a3"></path><path d="M900 369L831 356L826 397Z" fill="#446175" stroke="#446175"></path><path d="M852 170L857 88L822 93Z" fill="#617f90" stroke="#617f90"></path><path d="M0 367L0 420L38 408Z" fill="#6b899a" stroke="#6b899a"></path><path d="M900 439L900 369L826 397Z" fill="#7593a3" stroke="#7593a3"></path><path d="M815 563L900 534L846 514Z" fill="#3b586c" stroke="#3b586c"></path><path d="M764 600L805 600L815 563Z" fill="#577587" stroke="#577587"></path><path d="M900 292L900 214L809 226Z" fill="#446175" stroke="#446175"></path><path d="M822 93L857 88L784 52Z" fill="#29455b" stroke="#29455b"></path><path d="M0 600L75 600L81 564Z" fill="#577587" stroke="#577587"></path><path d="M81 564L75 600L104 600Z" fill="#7593a3" stroke="#7593a3"></path><path d="M900 90L857 88L852 170Z" fill="#577587" stroke="#577587"></path><path d="M900 450L786 438L821 508Z" fill="#6b899a" stroke="#6b899a"></path><path d="M900 450L821 508L846 514Z" fill="#7f9eac" stroke="#7f9eac"></path><path d="M900 214L900 184L852 170Z" fill="#446175" stroke="#446175"></path><path d="M0 134L0 145L60 111Z" fill="#324e64" stroke="#324e64"></path><path d="M0 134L60 111L0 79Z" fill="#617f90" stroke="#617f90"></path><path d="M900 534L900 450L846 514Z" fill="#7f9eac" stroke="#7f9eac"></path><path d="M0 79L64 82L41 0Z" fill="#29455b" stroke="#29455b"></path><path d="M0 79L60 111L64 82Z" fill="#8aa8b6" stroke="#8aa8b6"></path><path d="M0 420L0 499L38 408Z" fill="#29455b" stroke="#29455b"></path><path d="M0 499L0 518L86 521Z" fill="#617f90" stroke="#617f90"></path><path d="M41 0L64 82L98 44Z" fill="#3b586c" stroke="#3b586c"></path><path d="M900 184L900 90L852 170Z" fill="#29455b" stroke="#29455b"></path><path d="M857 88L861 0L784 52Z" fill="#617f90" stroke="#617f90"></path><path d="M900 600L900 534L815 563Z" fill="#7f9eac" stroke="#7f9eac"></path><path d="M144 0L41 0L98 44Z" fill="#324e64" stroke="#324e64"></path><path d="M900 90L900 72L857 88Z" fill="#617f90" stroke="#617f90"></path><path d="M900 72L861 0L857 88Z" fill="#617f90" stroke="#617f90"></path><path d="M0 518L0 600L81 564Z" fill="#8aa8b6" stroke="#8aa8b6"></path><path d="M805 600L900 600L815 563Z" fill="#7f9eac" stroke="#7f9eac"></path><path d="M41 0L0 0L0 79Z" fill="#324e64" stroke="#324e64"></path><path d="M900 72L900 0L861 0Z" fill="#617f90" stroke="#617f90"></path></g></svg>